HIERARCHY
ROOT Pelvis
{
	OFFSET 0.000000 0.000000 0.000000
	CHANNELS 6 Xposition Yposition Zposition Xrotation Yrotation Zrotation
	JOINT LeftUpLeg_virtual
	{
		OFFSET 0.000000 0.000000 0.000000
		CHANNELS 3 Xrotation Yrotation Zrotation
		JOINT LeftUpLeg
		{
			OFFSET 18.735201 -5.666702 -4.541200
			CHANNELS 3 Xrotation Yrotation Zrotation
			JOINT LeftLeg
			{
				OFFSET -0.021200 -31.938179 0.493100
				CHANNELS 3 Xrotation Yrotation Zrotation
				JOINT LeftFoot
				{
					OFFSET 0.021200 -31.938179 -4.336299
					CHANNELS 3 Xrotation Yrotation Zrotation
					JOINT LeftToeBase
					{
						OFFSET 0.943001 -26.722000 15.023500
						CHANNELS 3 Xrotation Yrotation Zrotation
						End Site
						{
							OFFSET 0 0 0
						}
					}
				}
			}
		}
	}
	JOINT RightUpLeg_virtual
	{
		OFFSET 0.000000 0.000000 0.000000
		CHANNELS 3 Xrotation Yrotation Zrotation
		JOINT RightUpLeg
		{
			OFFSET -18.735201 -5.666702 -4.541200
			CHANNELS 3 Xrotation Yrotation Zrotation
			JOINT RightLeg
			{
				OFFSET 0.018946 -31.938133 0.493100
				CHANNELS 3 Xrotation Yrotation Zrotation
				JOINT RightFoot
				{
					OFFSET -0.018946 -31.938126 -4.336299
					CHANNELS 3 Xrotation Yrotation Zrotation
					JOINT RightToeBase
					{
						OFFSET -0.943001 -26.722004 15.023500
						CHANNELS 3 Xrotation Yrotation Zrotation
						End Site
						{
							OFFSET 0 0 0
						}
					}
				}
			}
		}
	}
	JOINT Hips_virtual
	{
		OFFSET 0.000000 0.000000 0.000000
		CHANNELS 3 Xrotation Yrotation Zrotation
		JOINT Hips
		{
			OFFSET -0.000000 -0.000000 -0.000000
			CHANNELS 3 Xrotation Yrotation Zrotation
			JOINT Spine
			{
				OFFSET 0.000000 10.199997 -0.299500
				CHANNELS 3 Xrotation Yrotation Zrotation
				JOINT Spine1
				{
					OFFSET 0.000000 11.900002 -1.516600
					CHANNELS 3 Xrotation Yrotation Zrotation
					JOINT Spine2
					{
						OFFSET 0.000000 13.600006 -2.842500
						CHANNELS 3 Xrotation Yrotation Zrotation
						JOINT Neck_virtual
						{
							OFFSET 0.000000 0.000000 0.000000
							CHANNELS 3 Xrotation Yrotation Zrotation
							JOINT Neck
							{
								OFFSET 0.000000 9.624100 -2.890100
								CHANNELS 3 Xrotation Yrotation Zrotation
								JOINT Head
								{
									OFFSET 0.000000 14.068802 -1.351900
									CHANNELS 3 Xrotation Yrotation Zrotation
									End Site
									{
										OFFSET 0 0 0
									}
								}
							}
						}
						JOINT LeftShoulder_virtual
						{
							OFFSET 0.000000 0.000000 0.000000
							CHANNELS 3 Xrotation Yrotation Zrotation
							JOINT LeftShoulder
							{
								OFFSET 15.263000 10.923401 -0.547700
								CHANNELS 3 Xrotation Yrotation Zrotation
								JOINT LeftArm
								{
									OFFSET 25.438599 -2.830597 -13.032500
									CHANNELS 3 Xrotation Yrotation Zrotation
									JOINT LeftForeArm
									{
										OFFSET 29.960503 0.000000 0.000000
										CHANNELS 3 Xrotation Yrotation Zrotation
										JOINT LeftHand
										{
											OFFSET 27.849251 0.000000 0.000000
											CHANNELS 3 Xrotation Yrotation Zrotation
											End Site
											{
												OFFSET 0 0 0
											}
										}
									}
								}
							}
						}
						JOINT RightShoulder_virtual
						{
							OFFSET 0.000000 0.000000 0.000000
							CHANNELS 3 Xrotation Yrotation Zrotation
							JOINT RightShoulder
							{
								OFFSET -15.263000 10.923401 -0.547700
								CHANNELS 3 Xrotation Yrotation Zrotation
								JOINT RightArm
								{
									OFFSET -25.438599 -2.830597 -13.032500
									CHANNELS 3 Xrotation Yrotation Zrotation
									JOINT RightForeArm
									{
										OFFSET -29.960503 0.000000 0.000000
										CHANNELS 3 Xrotation Yrotation Zrotation
										JOINT RightHand
										{
											OFFSET -27.849251 0.000000 0.000000
											CHANNELS 3 Xrotation Yrotation Zrotation
											End Site
											{
												OFFSET 0 0 0
											}
										}
									}
								}
							}
						}
					}
				}
			}
		}
	}
}
MOTION
Frames: 8
Frame Time: 0.03333333
-21.070784 130.434738 33.725342 0.000000 0.000000 0.000000 2.492735 -26.916147 -2.578462 -37.508359 4.341749 12.290347 63.910640 3.420143 0.017265 9.226472 2.742293 -3.183932 0.000000 0.000000 0.000000 11.540244 -7.980997 8.557553 -15.156926 -9.627701 -6.411667 56.002347 -11.240900 0.229448 -0.326353 -13.433653 1.838827 0.000000 0.000000 0.000000 0.968875 -10.293964 1.209435 2.073225 -1.220028 -0.205118 -3.510425 -1.053250 -0.633002 -2.140412 -0.366768 -0.141548 0.000000 0.000000 0.000000 -6.866467 0.015909 -1.804124 -3.416637 0.903090 -0.098907 0.000000 0.000000 0.000000 2.463271 1.316208 1.925991 1.085247 1.132761 17.982307 -76.067981 -33.701390 6.065404 -17.409561 -55.401597 11.969104 0.000000 0.000000 0.000000 -4.854763 -2.138493 -4.166721 -1.618657 2.446737 -22.689426 -73.539663 22.208626 -1.843297 -46.237662 68.328939 21.029703 0.000000 0.000000 0.000000 
-21.110260 129.453430 34.750099 0.000000 0.000000 0.000000 2.074194 -26.569496 -3.068090 -38.114392 4.559714 12.013315 65.735954 4.278040 0.155065 10.651228 3.521897 -2.187897 0.000000 0.000000 0.000000 10.691188 -7.246053 8.387245 -16.363521 -9.312242 -6.545305 58.330765 -11.089185 -0.030634 1.329101 -13.044004 1.387453 0.000000 0.000000 0.000000 1.009992 -9.776412 1.163434 1.761151 -1.062158 -0.376404 -3.902487 -0.917391 -0.539832 -2.412854 -0.263576 -0.062624 0.000000 0.000000 0.000000 -6.896970 0.004931 -1.996273 -3.353356 0.818139 -0.242932 0.000000 0.000000 0.000000 2.631718 1.308848 2.148768 1.564362 0.265936 19.148750 -73.035377 -34.303041 8.196440 -15.018729 -53.718174 13.598719 0.000000 0.000000 0.000000 -4.756280 -2.102513 -3.970364 -1.208981 2.704611 -22.183184 -71.766710 22.257353 -1.035330 -41.104140 66.018915 17.112885 0.000000 0.000000 0.000000 
-21.327318 128.317795 35.584702 0.000000 0.000000 0.000000 1.687103 -25.677902 -3.398707 -38.708229 4.846049 11.927477 67.475794 5.206487 0.318433 11.932890 4.372890 -1.075803 0.000000 0.000000 0.000000 9.734837 -6.157908 8.060249 -17.643208 -8.857903 -6.790354 60.447980 -10.763565 -0.277066 2.850995 -12.500716 1.135672 0.000000 0.000000 0.000000 1.073064 -9.278368 1.105583 1.497183 -0.940128 -0.596635 -4.340988 -0.802578 -0.427436 -2.688873 -0.171390 0.019200 0.000000 0.000000 0.000000 -7.023233 -0.044664 -2.183967 -3.336148 0.711061 -0.382634 0.000000 0.000000 0.000000 2.617495 1.345505 2.355230 1.849111 -0.418514 20.258409 -70.253488 -34.596995 10.147329 -13.089522 -51.793324 14.761649 0.000000 0.000000 0.000000 -4.776519 -2.045205 -3.729893 -0.919647 3.057422 -21.574759 -70.027525 21.551887 0.072802 -36.532459 62.803487 13.941304 0.000000 0.000000 0.000000 
-21.614601 127.028030 36.431213 0.000000 0.000000 0.000000 1.420370 -24.827454 -3.649006 -39.185765 5.119716 11.896684 69.245332 6.094321 0.505564 13.207352 5.176161 0.059991 0.000000 0.000000 0.000000 8.865749 -5.051283 7.556992 -18.819017 -8.368303 -7.245133 62.276210 -10.448098 -0.502507 4.095396 -11.979718 0.946978 0.000000 0.000000 0.000000 1.158170 -8.787401 1.067535 1.213564 -0.740986 -0.750178 -4.749074 -0.719317 -0.268335 -2.926537 -0.095878 0.121213 0.000000 0.000000 0.000000 -7.127680 -0.051268 -2.222162 -3.308411 0.639460 -0.435919 0.000000 0.000000 0.000000 2.555126 1.390249 2.566792 2.044441 -1.020973 21.434819 -67.972690 -34.849145 11.555014 -11.590944 -50.270366 15.456361 0.000000 0.000000 0.000000 -4.677762 -2.026686 -3.552626 -0.564356 3.271345 -21.311478 -67.966871 20.744430 0.555356 -32.596221 59.434503 11.245526 0.000000 0.000000 0.000000 
-21.999378 125.735428 37.121220 0.000000 0.000000 0.000000 1.090766 -23.704315 -3.945809 -39.748136 5.461979 11.855277 70.876982 6.966074 0.643286 14.315296 5.991752 1.117725 0.000000 0.000000 0.000000 8.059270 -3.885231 7.334703 -19.866876 -7.920548 -7.372125 63.951307 -9.908538 -0.517139 5.282085 -11.354033 1.316524 0.000000 0.000000 0.000000 1.253394 -8.148919 1.049175 0.874710 -0.225174 -0.776952 -5.175884 -0.624348 -0.076173 -3.150740 -0.017331 0.233037 0.000000 0.000000 0.000000 -7.409562 0.017396 -2.155231 -3.372799 0.615675 -0.423705 0.000000 0.000000 0.000000 2.378764 1.466507 2.773919 2.112768 -1.500778 22.627720 -66.419696 -34.709717 12.400815 -10.725475 -48.552536 15.573340 0.000000 0.000000 0.000000 -4.406189 -2.048300 -3.149292 -0.063836 3.305201 -20.211773 -65.146549 19.060003 2.608317 -29.907346 56.577903 10.679860 0.000000 0.000000 0.000000 
-22.268272 124.572189 37.800331 0.000000 0.000000 0.000000 0.805980 -22.424822 -4.154056 -40.261578 5.809300 11.891626 72.268128 7.770049 0.756868 15.228163 6.755819 2.082856 0.000000 0.000000 0.000000 7.302139 -2.794298 6.974296 -20.829794 -7.463667 -7.651688 65.195788 -9.390975 -0.527792 6.152100 -10.769956 1.708974 0.000000 0.000000 0.000000 1.327159 -7.501709 1.038241 0.496173 0.337179 -0.780529 -5.670551 -0.556592 0.121088 -3.398926 0.044231 0.339678 0.000000 0.000000 0.000000 -7.714114 0.032532 -2.422143 -3.452339 0.554619 -0.589569 0.000000 0.000000 0.000000 2.122746 1.538795 2.907673 2.098169 -2.006562 23.573539 -65.733563 -34.385474 12.234914 -10.413997 -47.199933 15.065987 0.000000 0.000000 0.000000 -4.186698 -2.091311 -2.885576 0.373836 3.203671 -19.681651 -62.843560 17.520011 4.340891 -27.962834 53.903225 10.452951 0.000000 0.000000 0.000000 
-22.413658 123.596161 38.482922 0.000000 0.000000 0.000000 0.700993 -21.166965 -4.234260 -40.504716 6.127136 11.976474 73.536030 8.439117 0.868120 16.106667 7.391386 2.933053 0.000000 0.000000 0.000000 6.667058 -2.091745 6.710852 -21.659525 -7.140345 -7.873875 66.275511 -9.031580 -0.451211 6.849439 -10.389215 2.109756 0.000000 0.000000 0.000000 1.378673 -6.807610 1.022921 -0.001664 0.986780 -0.762015 -6.187060 -0.518696 0.306439 -3.639886 0.088479 0.431351 0.000000 0.000000 0.000000 -7.991154 0.026063 -2.483268 -3.520887 0.489521 -0.634089 0.000000 0.000000 0.000000 1.857421 1.606919 2.956384 2.050066 -2.506716 24.234628 -65.714746 -33.957187 11.167551 -10.432805 -46.366930 14.128869 0.000000 0.000000 0.000000 -4.314613 -2.139622 -3.142988 0.464169 2.992718 -21.278454 -62.742794 17.240014 3.433393 -26.848702 51.300461 9.169613 0.000000 0.000000 0.000000 
-22.560915 122.735062 39.154724 0.000000 0.000000 0.000000 0.438810 -20.203568 -4.274379 -40.823586 6.302624 12.044943 74.306714 8.906670 1.010509 16.651837 7.811964 3.623155 0.000000 0.000000 0.000000 6.138076 -1.818923 6.580903 -22.412040 -6.971899 -8.018104 67.422402 -8.798686 -0.256138 7.543085 -10.187041 2.577999 0.000000 0.000000 0.000000 1.448980 -6.010694 1.021067 -0.505501 1.789047 -0.624084 -6.664539 -0.490435 0.482287 -3.840449 0.126851 0.508284 0.000000 0.000000 0.000000 -8.455643 0.082340 -2.211410 -3.690319 0.471624 -0.487817 0.000000 0.000000 0.000000 1.605920 1.684180 2.918881 1.971208 -2.889163 24.603586 -66.304048 -33.184498 9.429804 -10.829776 -45.635035 12.794549 0.000000 0.000000 0.000000 -4.387574 -2.201088 -3.369637 0.585287 2.723840 -22.742185 -62.457845 17.075738 2.779264 -26.137327 49.337431 8.433083 0.000000 0.000000 0.000000 
